<svg xmlns:xlink="http://www.w3.org/1999/xlink" xmlns="http://www.w3.org/2000/svg" width="53" height="56" viewBox="0 0 53 56" class="dd-glyph-svg dd-glyph-elevated" aria-hidden="true">
<path id="d" d="M19.5,45c0,.3524,.0723,.6857,.1843,1h-3.9343c-.5522,0-1-.4478-1-1s.4478-1,1-1h.25v-4H3c-1.6567,0-3-1.3431-3-3V13c0-1.6569,1.3433-3,3-3H40c1.6567,0,3,1.3431,3,3v13h-2V13.5c0-.8284-.6716-1.5-1.5-1.5H3.5c-.8284,0-1.5,.6716-1.5,1.5v18.5c0,.5522,.4478,1,1,1H23v9h-.5c-1.6543,0-3,1.3458-3,3Zm33,0c0,.5522-.4478,1-1,1H22.5c-.5522,0-1-.4478-1-1s.4478-1,1-1h2.5v-13c0-1.6569,1.3433-3,3-3h18c1.6567,0,3,1.3431,3,3v13h2.5c.5522,0,1,.4478,1,1Zm-5.5-14c0-.5514-.4485-1-1-1H28c-.5515,0-1,.4486-1,1v13h20v-13Z" fill="#68CC45"></path>
</svg>