<?xml version="1.0"?>
<svg viewBox="0 0 35 35" xmlns="http://www.w3.org/2000/svg" xmlns:svg="http://www.w3.org/2000/svg">
 <g class="layer">
  <title>Layer 1</title>
  <g fill="none" fill-rule="evenodd" id="svg_1">
   <path d="m0,0l35,0l0,35l-35,0l0,-35z" fill="none" id="svg_2"/>
   <path d="m9,18.77l0,5.39c-0.61,-0.62 -0.97,-1.45 -1,-2.32l0,-3.52l0.93,0.42l0.07,0.03zm11.62,2.46c-0.94,0.48 -1.96,0.74 -3.01,0.77l-0.09,0l-0.13,0c-1.05,-0.03 -2.07,-0.29 -3,-0.76l-3.58,-1.64l-0.81,-0.37l0,5.82c2.24,1.4 4.86,2.09 7.5,1.97l0,0c5.87,0 9.5,-2.59 9.5,-5.18l0,-3.52l-0.94,0.42l-5.44,2.49zm9.52,-8l-9.94,-4.56c-0.82,-0.41 -1.72,-0.64 -2.64,-0.67l-0.06,0l-0.06,0c-0.92,0.03 -1.82,0.26 -2.64,0.67l-9.95,4.56c-0.51,0.21 -0.85,0.71 -0.85,1.27s0.34,1.06 0.85,1.27l3.15,1.45l0.11,0.05l1.04,0.47l6.34,-3.07c-0.07,-0.11 -0.11,-0.23 -0.11,-0.35c0,-0.48 0.55,-0.88 1.34,-1.04c0.51,-0.11 1.05,-0.11 1.56,0c0.79,0.16 1.35,0.56 1.35,1.04c0,0.62 -0.96,1.12 -2.13,1.12c-0.35,0 -0.69,-0.04 -1.02,-0.14l-6.15,2.98l0.9,0.41l3.57,1.64c0.8,0.41 1.69,0.64 2.59,0.67c0.04,0 0.07,0 0.11,0c0.04,0 0.07,0 0.11,0c0.9,-0.03 1.79,-0.26 2.59,-0.67l5.45,-2.5l1.24,-0.56l0.11,-0.05l3.14,-1.45c0.52,-0.21 0.86,-0.71 0.86,-1.27s-0.34,-1.07 -0.86,-1.27zm-21.14,13.42c-0.5,0.06 -0.87,0.48 -0.87,0.97l0,3.25c0,0.56 0.44,1 1,1l0.75,0c0.55,0 1,-0.44 1,-1l0,-3.25c-0.01,-0.49 -0.38,-0.91 -0.88,-0.97l0,-1.6c-0.36,-0.26 -0.7,-0.56 -1,-0.89l0,2.49z" fill="#08827C" fill-rule="nonzero" id="svg_3"/>
  </g>
 </g>
</svg>